<?xml version="1.0" standalone="no"?>
<!DOCTYPE svg PUBLIC "-//W3C//DTD SVG 20010904//EN"
 "http://www.w3.org/TR/2001/REC-SVG-20010904/DTD/svg10.dtd">
<svg version="1.0" xmlns="http://www.w3.org/2000/svg"
 width="768.000000pt" height="768.000000pt" viewBox="0 0 768.000000 768.000000"
 preserveAspectRatio="xMidYMid meet">

<g transform="translate(0.000000,768.000000) scale(0.100000,-0.100000)"
fill="#000000" stroke="none">
<path d="M6125 6429 c-33 -18 -86 -47 -118 -65 -32 -19 -60 -34 -63 -34 -2 0
-21 -10 -42 -23 -20 -13 -109 -61 -197 -107 -88 -45 -182 -95 -210 -110 -46
-25 -164 -87 -360 -190 -44 -23 -83 -45 -87 -49 -4 -4 35 -35 87 -70 53 -35
140 -95 195 -133 l100 -69 0 -1553 0 -1554 -69 -36 c-37 -19 -71 -33 -75 -29
-3 3 -6 620 -6 1370 0 1339 0 1365 -20 1408 -41 91 -127 148 -225 149 -83 1
-143 -24 -199 -83 -87 -94 -80 -28 -86 -888 -3 -419 -8 -764 -11 -768 -4 -3
-18 18 -33 46 l-26 53 0 453 c0 506 2 491 -72 559 -66 61 -86 69 -178 69 -75
-1 -90 -4 -126 -27 -53 -34 -98 -89 -113 -137 -6 -23 -11 -117 -11 -238 l0
-201 -92 -4 c-61 -3 -96 -1 -100 6 -4 6 -8 29 -8 52 0 96 -61 194 -147 234
-38 18 -60 21 -119 18 -64 -3 -78 -8 -127 -41 -36 -25 -63 -54 -83 -90 l-29
-52 -3 -292 -4 -293 -74 -2 c-41 -1 -84 -2 -96 -2 -21 -1 -24 5 -30 65 -10 84
-28 127 -74 173 -59 59 -108 80 -189 80 -84 0 -143 -23 -198 -79 -66 -66 -67
-71 -67 -424 0 -174 -4 -320 -8 -326 -4 -6 -53 -10 -110 -10 l-102 0 -1 40 c0
58 -30 121 -78 172 -59 59 -114 83 -196 83 -106 0 -189 -48 -243 -139 l-27
-46 -3 -337 -3 -337 26 -75 c31 -93 62 -145 129 -214 69 -72 83 -82 455 -296
177 -103 337 -196 355 -207 17 -10 38 -22 46 -26 8 -4 87 -50 175 -102 213
-126 347 -195 420 -216 84 -24 306 -24 390 0 105 31 230 98 590 316 17 10 41
24 55 32 14 8 99 58 190 112 91 54 179 105 195 114 17 9 67 39 113 66 103 62
76 46 341 200 278 162 365 239 438 385 51 101 48 23 53 1312 3 658 8 1199 11
1203 4 3 60 -28 125 -70 89 -57 120 -72 126 -62 11 21 5 1360 -7 1364 -5 1
-37 -11 -70 -28z m-35 -630 l0 -461 -27 18 c-16 9 -71 46 -123 81 l-95 63 -6
-112 c-4 -62 -7 -646 -8 -1298 -1 -1337 7 -1204 -82 -1310 l-44 -52 -5 433
c-3 239 -5 859 -5 1379 l0 945 94 200 c51 110 125 262 162 338 38 75 66 137
63 137 -4 0 -48 -22 -98 -49 -99 -53 -210 -111 -413 -216 -123 -65 -134 -68
-157 -55 -14 7 -26 16 -26 19 0 3 78 47 173 96 94 50 264 138 377 197 113 59
208 108 213 108 4 0 7 -208 7 -461z m-991 -593 c15 -8 35 -29 44 -48 17 -31
18 -114 15 -1358 -2 -729 -6 -1355 -9 -1391 -5 -71 -20 -99 -51 -99 -10 0 -21
-7 -24 -15 -4 -8 -11 -15 -17 -15 -25 0 -97 -36 -97 -47 0 -7 -2 -13 -4 -13
-2 0 -11 -3 -19 -6 -13 -5 -15 174 -16 1459 -2 1148 1 1470 10 1491 24 52 108
73 168 42z m-594 -558 c56 -44 55 -37 54 -670 -1 -321 -5 -873 -8 -1228 l-6
-645 -22 64 c-22 63 -23 75 -23 494 0 450 -8 558 -39 556 -9 0 -36 -25 -61
-54 -25 -29 -50 -54 -57 -54 -6 -1 -13 -7 -15 -13 -6 -16 -18 838 -18 1210 0
292 3 312 52 346 34 24 109 21 143 -6z m-709 -294 c52 -35 52 -37 56 -520 2
-247 2 -800 1 -1229 -3 -734 -4 -778 -20 -755 -9 13 -21 44 -26 69 -5 25 -13
273 -17 551 -5 278 -13 519 -19 535 -5 17 -10 23 -10 14 -1 -21 -41 -67 -42
-48 0 8 -5 4 -11 -8 -6 -13 -15 -23 -20 -23 -4 0 -8 -7 -8 -15 0 -8 -7 -15
-15 -15 -9 0 -22 -15 -30 -32 -16 -38 -19 64 -23 910 -3 531 -3 529 50 566 29
21 102 20 134 0z m363 -321 l24 -16 -7 -791 c-3 -435 -7 -880 -7 -989 0 -119
-4 -195 -10 -192 -5 4 -10 -2 -10 -12 -1 -17 -2 -17 -6 0 -4 15 -12 18 -38 15
l-34 -4 -10 61 c-6 34 -11 161 -11 283 0 182 -2 222 -14 222 -7 0 -16 14 -20
31 -3 17 -6 328 -6 691 l0 660 29 29 c34 34 83 39 120 12z m-1105 -137 c18 -7
42 -26 54 -41 l22 -28 0 -857 c0 -511 -4 -878 -10 -908 -9 -49 -43 -101 -55
-82 -3 4 1 11 7 14 7 2 4 4 -7 3 -11 -2 -25 -6 -32 -10 -12 -7 -53 24 -53 41
0 4 -14 15 -30 24 -23 13 -30 24 -30 47 0 16 -4 32 -9 36 -6 3 -11 13 -12 23
-1 9 -4 390 -6 845 -2 578 0 834 8 848 13 26 68 59 97 59 12 0 37 -6 56 -14z
m407 -332 c15 -19 6 -1464 -10 -1504 -7 -17 -10 -20 -10 -7 -1 18 -27 24 -33
6 -2 -5 -10 -11 -18 -12 -8 -2 -20 -6 -26 -10 -17 -10 -24 73 -24 300 0 142
-3 202 -11 205 -22 7 -28 126 -29 557 -1 413 0 436 18 460 31 42 110 44 143 5z
m-1150 -221 c16 -10 38 -36 49 -58 19 -39 20 -61 19 -331 -1 -159 -4 -360 -8
-447 l-6 -157 -21 14 c-20 14 -21 26 -27 223 -2 114 -8 216 -12 226 -8 18 -45
24 -45 7 0 -5 -9 -10 -19 -10 -10 0 -21 -6 -24 -14 -7 -18 -60 -25 -74 -10
-15 15 -18 496 -3 524 25 47 117 65 171 33z m389 -293 c20 -20 20 -31 18 -363
-2 -392 -7 -535 -16 -521 -4 5 -19 15 -34 21 -16 7 -28 19 -28 28 0 8 -4 23
-9 33 -22 43 -42 123 -47 187 -7 90 -13 117 -23 111 -12 -8 -21 110 -21 297
l0 169 29 29 c37 36 99 41 131 9z m1342 -1351 c5 -3 3 -9 -6 -12 -19 -8 -28 6
-19 29 5 14 8 15 11 3 3 -7 9 -17 14 -20z"/>
<path d="M3004 2049 c-3 -6 -1 -16 5 -22 8 -8 11 -5 11 11 0 24 -5 28 -16 11z"/>
<path d="M4737 6283 c-42 -30 -77 -88 -77 -126 0 -23 -48 -57 -269 -188 -63
-38 -328 -203 -353 -220 -15 -11 -29 -19 -31 -19 -2 0 -90 -54 -196 -120 -106
-66 -195 -120 -198 -120 -13 0 -83 -63 -88 -80 -8 -25 9 -57 35 -65 26 -8 39
-1 440 248 140 87 267 167 282 178 15 10 30 19 33 19 3 0 49 27 103 60 53 33
104 64 112 70 8 5 48 30 89 55 l74 47 38 -21 c50 -28 135 -29 183 0 96 56 111
191 31 269 -32 31 -42 35 -103 38 -60 3 -71 1 -105 -25z"/>
<path d="M4036 6095 c-14 -13 -26 -33 -26 -43 0 -24 -15 -36 -115 -97 -44 -27
-109 -67 -145 -90 -36 -23 -158 -99 -272 -170 -172 -106 -208 -133 -208 -151
0 -13 9 -28 20 -34 23 -13 22 -13 174 79 59 36 122 74 139 84 39 24 250 156
356 223 69 44 92 54 128 54 34 0 50 6 70 26 22 22 25 32 20 67 -10 75 -86 103
-141 52z"/>
<path d="M4446 5735 c-14 -13 -26 -33 -26 -44 0 -14 -56 -54 -220 -158 -372
-234 -744 -473 -758 -487 -23 -22 3 -59 36 -54 22 4 375 222 747 463 28 17 89
57 137 88 73 47 95 57 132 57 62 0 91 25 91 80 0 32 -6 47 -24 61 -33 27 -82
24 -115 -6z"/>
<path d="M2470 5714 c-6 -14 -10 -38 -10 -54 0 -56 -17 -79 -76 -105 -31 -14
-60 -25 -63 -25 -4 0 -34 20 -66 45 l-59 46 -78 -78 c-44 -44 -78 -86 -78 -97
0 -11 19 -42 41 -69 l41 -48 -15 -37 c-9 -20 -19 -47 -22 -59 -11 -41 -33 -53
-95 -53 l-59 0 -7 -56 c-6 -55 -1 -145 11 -164 3 -6 25 -10 48 -10 57 0 87 -9
87 -27 0 -8 7 -36 16 -63 l16 -49 -31 -39 c-16 -21 -37 -45 -46 -52 -25 -20
-18 -34 48 -106 l63 -68 52 32 c62 38 69 39 105 9 26 -21 27 -23 17 -77 -19
-98 -21 -92 46 -116 108 -39 114 -38 149 31 l31 60 60 3 60 3 33 -66 c18 -38
37 -65 44 -62 7 2 47 17 91 32 l78 28 -7 36 c-21 114 -21 115 24 144 l42 28
37 -22 c20 -12 44 -28 53 -36 19 -16 33 -6 108 85 l53 63 -55 58 -55 57 14 53
c17 69 29 81 73 81 82 0 81 -1 81 121 l0 109 -70 0 -70 0 -40 82 -39 82 34 48
c40 55 42 62 16 86 -10 9 -48 46 -84 81 l-65 63 -61 -50 -61 -51 -62 28 c-62
27 -63 28 -71 77 -16 103 -5 94 -117 94 -99 0 -101 0 -110 -26z m257 -359
c188 -87 254 -289 157 -476 -27 -52 -77 -100 -138 -132 -55 -29 -69 -32 -151
-32 -81 0 -96 3 -143 30 -253 139 -251 478 3 608 71 37 196 38 272 2z"/>
<path d="M4023 5170 c-13 -5 -32 -29 -44 -52 -19 -39 -43 -57 -236 -178 -413
-259 -400 -249 -387 -284 12 -32 53 -14 235 100 430 272 410 260 456 256 37
-4 47 0 73 26 39 39 39 74 1 113 -30 30 -58 35 -98 19z"/>
<path d="M1662 4658 c-12 -6 -25 -23 -29 -37 -3 -14 -10 -31 -15 -38 -5 -7
-79 -54 -164 -105 -84 -51 -156 -99 -159 -107 -3 -8 3 -23 14 -34 19 -20 21
-19 186 82 108 65 177 101 195 101 73 0 116 110 55 138 -31 14 -53 14 -83 0z"/>
<path d="M1897 4457 c-18 -19 -67 -55 -110 -81 -54 -33 -77 -53 -75 -65 6 -31
47 -24 122 23 51 32 85 46 108 46 41 0 68 25 68 63 0 28 -24 47 -60 47 -11 0
-35 -15 -53 -33z"/>
<path d="M2215 4245 c-14 -13 -25 -32 -25 -42 0 -16 -35 -42 -165 -123 -155
-96 -314 -204 -319 -215 -9 -24 4 -45 28 -45 13 0 76 34 142 75 65 42 128 81
138 88 11 7 25 16 30 20 6 5 52 35 103 68 68 43 102 59 127 59 62 0 89 75 43
118 -31 29 -72 28 -102 -3z"/>
<path d="M2485 4147 c-21 -21 -35 -45 -35 -59 0 -19 -18 -36 -92 -83 -51 -33
-180 -117 -287 -187 -107 -70 -195 -128 -197 -128 -2 0 -68 -42 -146 -93 -275
-180 -258 -170 -327 -178 -52 -5 -69 -12 -93 -36 -41 -42 -48 -96 -16 -143 63
-93 195 -55 212 62 l7 44 207 133 c453 290 711 459 740 485 16 15 43 23 84 26
52 4 64 9 82 33 28 37 28 100 0 128 -12 11 -40 23 -62 26 -37 5 -45 2 -77 -30z"/>
</g>
</svg>
